<svg xmlns="http://www.w3.org/2000/svg" version="1.1" xmlns:xlink="http://www.w3.org/1999/xlink" xmlns:svgjs="http://svgjs.dev/svgjs" width="1500" height="390" viewBox="0 0 1500 390"><g transform="matrix(1,0,0,1,-0.9090909090909918,-0.3797286512369453)"><svg viewBox="0 0 396 103" data-background-color="#000000" preserveAspectRatio="xMidYMid meet" height="390" width="1500" xmlns="http://www.w3.org/2000/svg" xmlns:xlink="http://www.w3.org/1999/xlink"><g id="tight-bounds" transform="matrix(1,0,0,1,0.2400000000000091,0.10028731045488826)"><svg viewBox="0 0 395.52 102.79942537909021" height="102.79942537909021" width="395.52"><g><svg viewBox="0 0 395.52 102.79942537909021" height="102.79942537909021" width="395.52"><g><svg viewBox="0 0 395.52 102.79942537909021" height="102.79942537909021" width="395.52"><g id="textblocktransform"><svg viewBox="0 0 395.52 102.79942537909021" height="102.79942537909021" width="395.52" id="textblock"><g><svg viewBox="0 0 395.52 102.79942537909021" height="102.79942537909021" width="395.52"><g transform="matrix(1,0,0,1,0,0)"><svg width="395.52" viewBox="1.6 -38.55 187.93 48.849999999999994" height="102.79942537909021" data-palette-color="url(#f477684e-b987-4972-b6ea-7c5d63295fec)"><g class="wordmark-text-0" data-fill-palette-color="primary" id="text-0"></g></svg></g></svg></g></svg></g></svg></g></svg></g><defs></defs><mask id="bb77e6ed-a3e5-41c5-a044-764d5c33e6b9"><g id="SvgjsG7228"><svg viewBox="0 0 395.52 102.79942537909021" height="102.79942537909021" width="395.52"><g><svg viewBox="0 0 395.52 102.79942537909021" height="102.79942537909021" width="395.52"><g><svg viewBox="0 0 395.52 102.79942537909021" height="102.79942537909021" width="395.52"><g id="SvgjsG7227"><svg viewBox="0 0 395.52 102.79942537909021" height="102.79942537909021" width="395.52" id="SvgjsSvg7226"><g><svg viewBox="0 0 395.52 102.79942537909021" height="102.79942537909021" width="395.52"><g transform="matrix(1,0,0,1,0,0)"><svg width="395.52" viewBox="1.6 -38.55 187.93 48.849999999999994" height="102.79942537909021" data-palette-color="url(#f477684e-b987-4972-b6ea-7c5d63295fec)"><g class="wordmark-text-0" data-fill-palette-color="primary" id="SvgjsG7225"><path d="M6.7 0L6.7 0Q4.1 0 2.85-1.55 1.6-3.1 1.6-5.7L1.6-5.7 1.6-29Q1.6-32.8 3.68-34.6 5.75-36.4 8.65-36.4L8.65-36.4Q11.4-36.4 13.33-34.6 15.25-32.8 16.15-28.9L16.15-28.9 20.05-11.95 21.35-11.95 25.25-28.9Q26.15-32.8 28.13-34.6 30.1-36.4 32.85-36.4L32.85-36.4Q35.75-36.4 37.83-34.6 39.9-32.8 39.9-29L39.9-29 39.9-5.7Q39.9-3.1 38.63-1.55 37.35 0 34.75 0L34.75 0Q32.25 0 30.9-1.55 29.55-3.1 29.55-5.7L29.55-5.7 29.55-19.15Q29.55-19.65 29.43-20.08 29.3-20.5 28.75-20.5L28.75-20.5Q28.3-20.5 28.1-20.08 27.9-19.65 27.8-19.15L27.8-19.15 25.9-6.55Q25.55-4.5 25.08-3.03 24.6-1.55 23.6-0.78 22.6 0 20.7 0L20.7 0Q18.85 0 17.82-0.78 16.8-1.55 16.32-3.03 15.85-4.5 15.55-6.55L15.55-6.55 13.6-19.15Q13.55-19.65 13.35-20.08 13.15-20.5 12.65-20.5L12.65-20.5Q12.15-20.5 12-20.08 11.85-19.65 11.85-19.15L11.85-19.15 11.85-5.7Q11.85-3.1 10.53-1.55 9.2 0 6.7 0ZM47.8 0L47.8 0Q45.45 0 44.15-1.35 42.85-2.7 42.85-4.75L42.85-4.75 42.85-21.15Q42.85-23.3 44.15-24.73 45.45-26.15 47.8-26.15L47.8-26.15Q50.15-26.15 51.4-24.73 52.65-23.3 52.65-21.25L52.65-21.25 52.65-20.2 53.6-20.2Q53.8-22.85 55.6-24.55 57.4-26.25 59.85-26.25L59.85-26.25Q62.3-26.25 63.72-24.75 65.15-23.25 65.15-20.75L65.15-20.75Q65.15-18.4 63.8-16.85 62.45-15.3 60.35-15.3L60.35-15.3Q58.6-15.3 57.42-16.13 56.25-16.95 55.7-18.05L55.7-18.05Q54.1-18.25 53.37-17.73 52.65-17.2 52.65-15.65L52.65-15.65 52.65-4.75Q52.65-2.7 51.4-1.35 50.15 0 47.8 0ZM66.75-31.95L66.75-31.95Q66.75-34.1 68.07-35.43 69.39-36.75 71.75-36.75L71.75-36.75Q74.25-36.75 75.47-35.45 76.69-34.15 76.69-32L76.69-32Q76.69-29.9 75.47-28.63 74.25-27.35 71.75-27.35L71.75-27.35Q69.3-27.35 68.02-28.63 66.75-29.9 66.75-31.95ZM71.75 0L71.75 0Q69.39 0 68.25-1.3 67.09-2.6 67.09-4.55L67.09-4.55 67.09-21.65Q67.09-23.8 68.25-25.05 69.39-26.3 71.75-26.3L71.75-26.3Q74.09-26.3 75.27-25.05 76.44-23.8 76.44-21.75L76.44-21.75 76.44-4.55Q76.44-2.6 75.22-1.3 74 0 71.75 0ZM90.84 10.3L90.84 10.3Q87.79 10.3 85.67 9.65 83.54 9 81.59 7.65L81.59 7.65Q79.89 6.45 79.19 4.3 78.49 2.15 79.89-0.05L79.89-0.05Q80.79-1.4 81.92-1.9 83.04-2.4 84.12-2.33 85.19-2.25 85.99-1.85L85.99-1.85Q87.74-1 88.72-0.63 89.69-0.25 90.94-0.25L90.94-0.25Q92.79-0.25 94.07-1.55 95.34-2.85 95.34-5.2L95.34-5.2 95.34-9.25 94.44-9.25Q94.09-6.6 92.42-5.08 90.74-3.55 87.84-3.55L87.84-3.55Q85.64-3.55 83.54-4.65 81.44-5.75 80.09-8.15 78.74-10.55 78.74-14.5L78.74-14.5Q78.74-20.3 81.29-23.15 83.84-26 87.89-26L87.89-26Q90.69-26 92.69-24.13 94.69-22.25 94.69-18.9L94.69-18.9 94.84-18.95 94.84-21.75Q94.84-23.5 95.97-24.83 97.09-26.15 99.49-26.15L99.49-26.15Q102.04-26.15 103.17-24.83 104.29-23.5 104.29-21.75L104.29-21.75 104.34-6Q104.39-0.8 103.07 2.85 101.74 6.5 98.77 8.4 95.79 10.3 90.84 10.3ZM87.14-15.35L87.14-15.35Q87.14-12.65 90.74-12.65L90.74-12.65Q93.09-12.65 94.04-13.3 94.99-13.95 94.99-15.35L94.99-15.35Q94.99-16.8 94.02-17.35 93.04-17.9 90.69-17.9L90.69-17.9Q88.99-17.9 88.07-17.35 87.14-16.8 87.14-15.35ZM114.29 0L114.29 0Q110.59 0 108.52-2 106.44-4 106.44-7.6L106.44-7.6Q106.44-11.2 108.84-12.83 111.24-14.45 114.99-14.45L114.99-14.45Q117.19-14.45 118.99-14.15 120.79-13.85 122.24-13.3L122.24-13.3 122.39-13.3 122.39-14.05Q122.39-15.2 121.54-15.88 120.69-16.55 119.39-16.5L119.39-16.5Q118.14-16.5 117.27-16.35 116.39-16.2 115.09-15.85L115.09-15.85Q112.69-15.25 110.94-15.95 109.19-16.65 108.54-18.7L108.54-18.7Q107.94-20.85 108.82-22.3 109.69-23.75 111.49-24.55L111.49-24.55Q113.04-25.3 114.97-25.8 116.89-26.3 119.14-26.3L119.14-26.3Q125.69-26.3 128.77-23.13 131.84-19.95 131.84-12.5L131.84-12.5 131.84-4.75Q131.84-2.7 130.59-1.35 129.34 0 127.14 0L127.14 0Q124.74 0 123.57-1.35 122.39-2.7 122.39-4.65L122.39-4.65 122.39-5.8 121.39-5.8Q121.39-4.5 120.92-3.15 120.44-1.8 118.97-0.9 117.49 0 114.29 0ZM114.79-10.95L114.79-10.95Q114.79-10.1 115.42-9.75 116.04-9.4 118.14-9.4L118.14-9.4Q120.04-9.4 120.79-9.75 121.54-10.1 121.54-10.95L121.54-10.95Q121.54-11.75 120.79-12.08 120.04-12.4 118.14-12.4L118.14-12.4Q116.04-12.4 115.42-12.08 114.79-11.75 114.79-10.95ZM139.29 0L139.29 0Q137.09 0 135.76-1.33 134.44-2.65 134.44-4.6L134.44-4.6 134.44-21.15Q134.44-23.25 135.69-24.7 136.94-26.15 139.29-26.15L139.29-26.15Q141.59-26.15 142.79-24.7 143.99-23.25 143.99-21.05L143.99-21.05 143.99-18.55 144.89-18.55Q144.89-21.4 145.91-23.05 146.94-24.7 148.54-25.43 150.14-26.15 151.74-26.15L151.74-26.15Q155.59-26.15 157.39-23.38 159.19-20.6 159.19-15.5L159.19-15.5 159.19-4.6Q159.19-2.65 157.89-1.33 156.59 0 154.39 0L154.39 0Q152.14 0 150.81-1.33 149.49-2.65 149.49-4.6L149.49-4.6 149.49-13.45Q149.49-15.25 148.81-16.25 148.14-17.25 146.84-17.25L146.84-17.25Q145.34-17.25 144.66-16.15 143.99-15.05 143.99-13.35L143.99-13.35 143.99-4.6Q143.99-2.65 142.74-1.33 141.49 0 139.29 0ZM166.59 0L166.59 0Q164.38 0 163.09-1.33 161.78-2.65 161.78-4.6L161.78-4.6 161.78-33.55Q161.78-35.65 163.06-37.1 164.34-38.55 166.69-38.55L166.69-38.55Q168.99-38.55 170.16-37.1 171.34-35.65 171.34-33.5L171.34-33.5 171.34-18.35 171.49-18.3Q171.74-20.4 172.78-22.18 173.84-23.95 175.74-25.05 177.63-26.15 180.38-26.15L180.38-26.15Q184.09-26.15 186.34-24.1 188.59-22.05 188.59-18.5L188.59-18.5Q188.59-16.05 187.61-14.63 186.63-13.2 184.99-12.65 183.34-12.1 181.34-12.15L181.34-12.15 181.34-11.3Q185.78-11.3 187.66-9.53 189.53-7.75 189.53-5.05L189.53-5.05Q189.53-2.55 188.03-1.2 186.53 0.15 184.44 0.1L184.44 0.1Q182.13 0.05 180.63-1.25 179.13-2.55 178.13-4.75L178.13-4.75 175.99-9.3Q175.34-10.65 174.31-11.25 173.28-11.85 171.34-11.7L171.34-11.7 171.34-4.6Q171.34-2.65 170.06-1.33 168.78 0 166.59 0ZM172.38-15.1L172.38-15.1Q172.38-14.4 173.11-14.08 173.84-13.75 176.13-13.75L176.13-13.75Q178.38-13.75 179.13-14.05 179.88-14.35 179.88-15.1L179.88-15.1Q179.88-15.8 179.13-16.15 178.38-16.5 176.19-16.5L176.19-16.5Q173.84-16.5 173.11-16.15 172.38-15.8 172.38-15.1Z" fill="white"></path></g></svg></g></svg></g></svg></g></svg></g></svg></g><defs><mask></mask></defs></svg><rect width="395.52" height="102.79942537909021" fill="black" stroke="none" visibility="hidden"></rect></g></mask><linearGradient x1="0" x2="1" y1="0.548" y2="0.55" id="f477684e-b987-4972-b6ea-7c5d63295fec"><stop stop-color="#ff6cab" offset="0"></stop><stop stop-color="#7366ff" offset="1"></stop></linearGradient><rect width="395.52" height="102.79942537909021" fill="url(#f477684e-b987-4972-b6ea-7c5d63295fec)" mask="url(#bb77e6ed-a3e5-41c5-a044-764d5c33e6b9)" data-fill-palette-color="primary"></rect></svg><rect width="395.52" height="102.79942537909021" fill="none" stroke="none" visibility="hidden"></rect></g></svg></g></svg>